<?xml version="1.0" encoding="utf-8"?>
<!-- Generator: Adobe Illustrator 25.0.0, SVG Export Plug-In . SVG Version: 6.00 Build 0)  -->
<svg version="1.1" id="Layer_1" xmlns="http://www.w3.org/2000/svg" xmlns:xlink="http://www.w3.org/1999/xlink" x="0px" y="0px"
	 viewBox="0 0 74 24" style="enable-background:new 0 0 74 24;" xml:space="preserve">
<style type="text/css">
	.st0{clip-path:url(#SVGID_2_);}
	.st1{fill:url(#SVGID_3_);}
	.st2{fill:url(#SVGID_4_);}
	.st3{fill:url(#SVGID_5_);}
</style>
<path d="M30.2,5.7h5.9c1.4,0,2.4,0.4,3.1,1.1c0.7,0.7,1,1.7,1,3s-0.4,2.3-1.1,3c-0.7,0.7-1.8,1.1-3.2,1.1h-3.1V18h-2.6V5.7z
	 M35.9,11.5c0.6,0,1-0.2,1.3-0.5s0.5-0.8,0.5-1.4c0-0.6-0.2-1-0.5-1.3c-0.3-0.3-0.7-0.5-1.3-0.5h-3v3.7H35.9z M42.3,5h2.5v2.3h-2.5
	V5z M42.3,8.5h2.5V18h-2.5V8.5z M49.5,13.1l-3.1-4.6h3l1.7,2.8h0.1l1.7-2.8h2.8L52.6,13l3.3,4.9h-3l-2-3.1h-0.1l-2,3.1h-2.8
	L49.5,13.1z M61.2,18.2c-1.5,0-2.7-0.4-3.4-1.2c-0.7-0.8-1.1-2.1-1.1-3.7s0.4-2.9,1.1-3.7c0.8-0.8,1.9-1.2,3.4-1.2
	c1.4,0,2.5,0.4,3.2,1.2c0.7,0.8,1,2,1,3.7v0.6h-6.2c0,0.8,0.2,1.5,0.5,1.9c0.3,0.4,0.8,0.6,1.6,0.6c0.5,0,0.9-0.1,1.2-0.4
	c0.3-0.3,0.5-0.7,0.5-1.2h2.4c0,1.2-0.4,2.1-1.2,2.7C63.5,17.9,62.5,18.2,61.2,18.2z M62.8,12.2c0-1.3-0.5-2-1.6-2
	c-0.6,0-1.1,0.2-1.4,0.5c-0.3,0.3-0.5,0.8-0.6,1.5H62.8z M67.3,8.5h2.1l0.2,1.5h0.1c0.2-0.5,0.5-1,0.8-1.3c0.3-0.3,0.8-0.5,1.3-0.5
	c0.3,0,0.7,0.1,0.9,0.2v2.3H72c-0.8,0-1.4,0.2-1.7,0.7c-0.4,0.4-0.5,1.1-0.5,2V18h-2.5V8.5z"/>
<g>
	<defs>
		<rect id="SVGID_1_" y="0" width="24" height="24"/>
	</defs>
	<clipPath id="SVGID_2_">
		<use xlink:href="#SVGID_1_"  style="overflow:visible;"/>
	</clipPath>
	<g class="st0">
		
			<linearGradient id="SVGID_3_" gradientUnits="userSpaceOnUse" x1="17.0242" y1="15.4268" x2="11.7873" y2="7.8331" gradientTransform="matrix(1 0 0 -1 0 23.8898)">
			<stop  offset="0.2303" style="stop-color:#3BCC95"/>
			<stop  offset="1" style="stop-color:#085F3E"/>
		</linearGradient>
		<path class="st1" d="M20,8.5c-0.8-0.4-2-0.4-3.5-0.4c-1.3,0-2.1,0.1-2.4,0.1c-1.2,0-1.8,0.8-2,1.2c-0.2,0.4-1.2,3.4-1.2,4
			c-0.1,0.8,0.1,1.4,1.1,1.4c1.6,0,5.5-5.5,7.4-5.9c0.8-0.2,1.1,0.1,1.3,0.4C20.7,9,20.4,8.7,20,8.5z"/>
		
			<linearGradient id="SVGID_4_" gradientUnits="userSpaceOnUse" x1="6.1658" y1="5.98" x2="9.8924" y2="18.8963" gradientTransform="matrix(1 0 0 -1 0 23.8898)">
			<stop  offset="0.1755" style="stop-color:#02603D"/>
			<stop  offset="0.4615" style="stop-color:#11A56D"/>
			<stop  offset="0.7099" style="stop-color:#24B47E"/>
			<stop  offset="0.8909" style="stop-color:#28C98D"/>
		</linearGradient>
		<path class="st2" d="M11.7,14.8c-0.8-0.1-0.9-0.6-0.8-1.4c0.1-0.6,1.1-3.5,1.2-4c1.2-4,1.7-7.1,1.8-7.4c0.5-2-1.7-3-3.5-0.4
			c-1.4,2.1-6.7,9.8-7.2,10.8c-0.4,0.9,0,2.4,1.6,2.4C7,14.8,11.7,14.8,11.7,14.8z"/>
		
			<linearGradient id="SVGID_5_" gradientUnits="userSpaceOnUse" x1="13.3757" y1="9.088" x2="16.5152" y2="6.4242" gradientTransform="matrix(1 0 0 -1 0 23.8898)">
			<stop  offset="0" style="stop-color:#088E5C"/>
			<stop  offset="0.2627" style="stop-color:#179B69"/>
			<stop  offset="0.6709" style="stop-color:#24B47E"/>
			<stop  offset="0.8909" style="stop-color:#24B47E"/>
		</linearGradient>
		<path class="st3" d="M11.7,14.8c0.3,0,0.5,0,1-0.2c1.8-1.1,5.1-5.3,6.8-5.7c0.8-0.2,1.1,0.1,1.3,0.4c0.6,0.9,0.1,2-0.5,2.8
			c-3.5,5.2-6.6,9.5-8.1,11.2c-1.1,1.3-3.2,0.9-2.5-1.5C10,21,11.7,14.8,11.7,14.8z"/>
	</g>
</g>
</svg>
