<svg width="74" height="24" viewBox="0 0 74 24" fill="none" xmlns="http://www.w3.org/2000/svg">
<path d="M30.206 5.652H36.092C37.472 5.652 38.51 6.006 39.206 6.714C39.902 7.41 40.25 8.4 40.25 9.684C40.25 10.968 39.884 11.97 39.152 12.69C38.432 13.398 37.352 13.752 35.912 13.752H32.816V18H30.206V5.652ZM35.858 11.538C36.422 11.538 36.854 11.376 37.154 11.052C37.454 10.728 37.604 10.272 37.604 9.684C37.604 9.108 37.454 8.664 37.154 8.352C36.854 8.028 36.422 7.866 35.858 7.866H32.816V11.538H35.858ZM42.2659 4.986H44.7319V7.326H42.2659V4.986ZM42.2659 8.532H44.7319V18H42.2659V8.532ZM49.4536 13.104L46.3936 8.532H49.3636L51.0736 11.286H51.1816L52.9276 8.532H55.7176L52.6036 13.05L55.8976 18H52.9456L50.9836 14.868H50.8756L48.8956 18H46.1236L49.4536 13.104ZM61.2016 18.216C59.6776 18.216 58.5376 17.814 57.7816 17.01C57.0376 16.206 56.6656 14.958 56.6656 13.266C56.6656 11.574 57.0376 10.326 57.7816 9.522C58.5376 8.718 59.6776 8.316 61.2016 8.316C62.6056 8.316 63.6556 8.724 64.3516 9.54C65.0476 10.344 65.3956 11.586 65.3956 13.266V13.842H59.1676C59.1916 14.682 59.3596 15.306 59.6716 15.714C59.9836 16.11 60.5056 16.308 61.2376 16.308C61.7536 16.308 62.1676 16.164 62.4796 15.876C62.8036 15.588 62.9656 15.18 62.9656 14.652H65.3956C65.3956 15.84 65.0116 16.734 64.2436 17.334C63.4756 17.922 62.4616 18.216 61.2016 18.216ZM62.8396 12.204C62.8396 10.896 62.2936 10.242 61.2016 10.242C60.5776 10.242 60.1036 10.404 59.7796 10.728C59.4676 11.052 59.2756 11.544 59.2036 12.204H62.8396ZM67.2975 8.532H69.4035L69.6015 10.062H69.7275C69.9315 9.522 70.1955 9.096 70.5195 8.784C70.8435 8.472 71.2695 8.316 71.7975 8.316C72.1455 8.316 72.4575 8.37 72.7335 8.478V10.782H72.0495C71.2455 10.782 70.6635 11.004 70.3035 11.448C69.9435 11.88 69.7635 12.54 69.7635 13.428V18H67.2975V8.532Z" fill="white"/>
<g clip-path="url(#clip0_393_226)">
<path d="M19.9713 8.49653C19.1999 8.12154 18.0106 8.11082 16.5213 8.13225C15.2463 8.15368 14.3785 8.20725 14.0785 8.21796C12.8785 8.26082 12.257 8.96796 12.0856 9.40725C11.9142 9.84653 10.9285 12.7608 10.8535 13.4037C10.7463 14.2287 10.9606 14.8072 11.9892 14.8072C13.5535 14.8072 17.5285 9.35368 19.4356 8.88225C20.2178 8.68939 20.5178 8.97868 20.7535 9.33225C20.6892 9.03225 20.4428 8.72153 19.9713 8.49653Z" fill="url(#paint0_linear_393_226)"/>
<path d="M11.6999 14.775C10.9178 14.6786 10.7571 14.1322 10.8535 13.3929C10.9392 12.7608 11.9463 9.85719 12.0856 9.39647C13.3285 5.41076 13.7785 2.27147 13.8428 1.98219C14.3142 -0.0535286 12.1499 -1.03924 10.3821 1.56433C8.93564 3.70719 3.64278 11.3893 3.14992 12.3965C2.72135 13.2643 3.14992 14.775 4.70349 14.775C6.99635 14.775 11.6999 14.775 11.6999 14.775Z" fill="url(#paint1_linear_393_226)"/>
<path d="M11.721 14.775C12.0425 14.8072 12.2568 14.7964 12.6746 14.55C14.5068 13.5 17.7639 9.27858 19.4353 8.86072C20.2282 8.65715 20.5389 8.98929 20.7318 9.26787C21.3425 10.1679 20.8175 11.2714 20.271 12.1072C16.7996 17.3572 13.6496 21.5679 12.2032 23.2929C11.0996 24.6107 8.96747 24.225 9.74962 21.75C9.98533 20.9786 11.721 14.775 11.721 14.775Z" fill="url(#paint2_linear_393_226)"/>
</g>
<defs>
<linearGradient id="paint0_linear_393_226" x1="17.0217" y1="8.46147" x2="11.7848" y2="16.0551" gradientUnits="userSpaceOnUse">
<stop offset="0.2303" stop-color="#3BCC95"/>
<stop offset="1" stop-color="#085F3E"/>
</linearGradient>
<linearGradient id="paint1_linear_393_226" x1="6.16804" y1="17.9105" x2="9.89467" y2="4.99427" gradientUnits="userSpaceOnUse">
<stop offset="0.1755" stop-color="#02603D"/>
<stop offset="0.4615" stop-color="#11A56D"/>
<stop offset="0.7099" stop-color="#24B47E"/>
<stop offset="0.8909" stop-color="#28C98D"/>
</linearGradient>
<linearGradient id="paint2_linear_393_226" x1="13.3719" y1="14.8062" x2="16.5114" y2="17.47" gradientUnits="userSpaceOnUse">
<stop stop-color="#088E5C"/>
<stop offset="0.2627" stop-color="#179B69"/>
<stop offset="0.6709" stop-color="#24B47E"/>
<stop offset="0.8909" stop-color="#24B47E"/>
</linearGradient>
<clipPath id="clip0_393_226">
<rect width="24" height="24" fill="white"/>
</clipPath>
</defs>
</svg>
