<svg width="798" height="532" viewBox="0 0 798 532" fill="none" xmlns="http://www.w3.org/2000/svg">
<rect width="797.5" height="531.023" fill="#BEBEBE"/>
<g opacity="0.3" clip-path="url(#clip0_0_3)">
<path d="M421.721 316C421.021 316 420.304 315.913 419.596 315.725L355.167 298.471C350.75 297.254 348.117 292.679 349.275 288.263L357.404 257.962C357.704 256.85 358.846 256.204 359.954 256.487C361.067 256.783 361.725 257.929 361.429 259.038L353.304 289.329C352.725 291.538 354.05 293.837 356.263 294.45L420.667 311.696C422.879 312.279 425.163 310.963 425.738 308.763L428.992 296.704C429.292 295.592 430.433 294.929 431.546 295.233C432.658 295.533 433.313 296.679 433.017 297.788L429.767 309.829C428.788 313.537 425.413 316 421.721 316V316Z" fill="black"/>
<path d="M440.667 291H374C369.404 291 365.667 287.263 365.667 282.667V232.667C365.667 228.071 369.404 224.333 374 224.333H440.667C445.263 224.333 449 228.071 449 232.667V282.667C449 287.263 445.263 291 440.667 291ZM374 228.5C371.704 228.5 369.833 230.371 369.833 232.667V282.667C369.833 284.963 371.704 286.833 374 286.833H440.667C442.963 286.833 444.833 284.963 444.833 282.667V232.667C444.833 230.371 442.963 228.5 440.667 228.5H374Z" fill="black"/>
<path d="M386.5 253.5C381.904 253.5 378.167 249.762 378.167 245.167C378.167 240.571 381.904 236.833 386.5 236.833C391.096 236.833 394.833 240.571 394.833 245.167C394.833 249.762 391.096 253.5 386.5 253.5ZM386.5 241C384.204 241 382.333 242.871 382.333 245.167C382.333 247.462 384.204 249.333 386.5 249.333C388.796 249.333 390.667 247.462 390.667 245.167C390.667 242.871 388.796 241 386.5 241Z" fill="black"/>
<path d="M368.042 286.542C367.508 286.542 366.975 286.338 366.567 285.933C365.754 285.121 365.754 283.8 366.567 282.988L386.246 263.308C388.604 260.95 392.725 260.95 395.083 263.308L400.942 269.167L417.158 249.708C418.338 248.296 420.071 247.475 421.917 247.458H421.963C423.788 247.458 425.517 248.25 426.708 249.637L448.5 275.063C449.25 275.933 449.15 277.25 448.275 278C447.404 278.75 446.092 278.654 445.338 277.775L423.546 252.35C423.142 251.883 422.583 251.625 421.963 251.625C421.529 251.588 420.767 251.887 420.363 252.375L402.683 273.588C402.308 274.038 401.763 274.308 401.175 274.333C400.583 274.375 400.021 274.142 399.608 273.725L392.138 266.254C391.35 265.471 389.979 265.471 389.192 266.254L369.512 285.933C369.108 286.338 368.575 286.542 368.042 286.542V286.542Z" fill="black"/>
</g>
</svg>
