<svg width="30" height="30" viewBox="0 0 30 30" fill="none" xmlns="http://www.w3.org/2000/svg">
<path d="M27.0369 23.9394C25.638 22.0665 23.8214 20.5456 21.7317 19.4978C19.6419 18.4499 17.3366 17.9039 14.9989 17.9032C12.6611 17.9025 10.3554 18.447 8.26505 19.4935C6.17465 20.5401 4.35716 22.0598 2.95703 23.9318C4.35005 25.8134 6.16456 27.3424 8.25509 28.3962C10.3456 29.45 12.654 29.9993 14.9951 30C17.3362 30.0007 19.6449 29.4529 21.7361 28.4004C23.8272 27.3479 25.6427 25.8201 27.0369 23.9394V23.9394Z" fill="#A8A8A8"/>
<path d="M14.9998 15.9678C18.2066 15.9678 20.8063 13.3681 20.8063 10.1613C20.8063 6.9545 18.2066 4.35486 14.9998 4.35486C11.793 4.35486 9.19336 6.9545 9.19336 10.1613C9.19336 13.3681 11.793 15.9678 14.9998 15.9678Z" fill="#A8A8A8"/>
</svg>
